<?xml version="1.0" encoding="UTF-8"?>
<svg id="Layer_1" xmlns="http://www.w3.org/2000/svg" version="1.1" viewBox="0 0 2100 2100">
  <!-- Generator: Adobe Illustrator 30.3.0, SVG Export Plug-In . SVG Version: 2.1.3 Build 182)  -->
  <defs>
    <style>
      .st0 {
        fill: #fff;
      }
    </style>
  </defs>
  <path class="st0" d="M1808.8,729.4c-41.5-98.1-100.9-186.1-176.5-261.8-75.6-75.6-163.7-135-261.8-176.5-101.5-42.9-209.4-64.7-320.5-64.7s-219,21.8-320.6,64.7c-98.1,41.5-186.1,100.9-261.8,176.5-75.6,75.6-135,163.7-176.5,261.8-42.9,101.5-64.7,209.4-64.7,320.5s21.8,219,64.7,320.6c41.5,98.1,100.9,186.1,176.5,261.8,75.6,75.6,163.7,135,261.8,176.5,101.5,42.9,209.4,64.7,320.6,64.7s219-21.8,320.5-64.7c98.1-41.5,186.1-100.9,261.8-176.5,75.6-75.6,135-163.7,176.5-261.8,42.9-101.5,64.7-209.4,64.7-320.6s-21.8-219-64.7-320.5ZM1050,1846.4c-381.7,0-701.6-270-778.7-629.1h1557.4c-77.1,359.1-396.9,629.1-778.7,629.1ZM265.9,1189.5c-8-45.3-12.2-91.9-12.2-139.5,0-439.1,357.3-796.4,796.4-796.4s796.4,357.2,796.4,796.4-4.2,94.2-12.2,139.5H265.9Z"/>
  <g>
    <path class="st0" d="M587.9,610.3c-14.5,30.5-14.9,83.2-12.7,81.7,21.3-13.8,52.6-40.5,66.8-61.8,50-75.4-22.7-86.3-54.1-19.9ZM628.2,590.6l7.2-12.2s-2.8,4.8-7.2,12.2Z"/>
    <path class="st0" d="M659.8,470.2c-7.8,32.8,2.6,84.4,4.4,82.6,17.9-17.9,43.2-50.4,52.6-74.2,33.4-84-40-79.7-57-8.3Z"/>
    <path class="st0" d="M779,403.2c-19.4,27.6-28.9,79.5-26.4,78.4,23.3-10.1,58.7-31,76.3-49.5,62.2-65.8-7.6-88.8-49.9-28.9Z"/>
    <path class="st0" d="M938.4,353.5c-28.6,17.9-57.2,62.1-54.6,62.1,25.4-.3,66.1-5.8,89.6-16.1,82.7-36.6,27.4-84.9-34.9-46Z"/>
    <path class="st0" d="M753,517.4c-22,13.2-49.9,43.3-64.8,63.9-1.6,2.1,51.1,4.1,82.2-9,67.7-28.4,60.1-101.5-17.4-54.9Z"/>
    <path class="st0" d="M904.5,439.6c-23.9,9.2-56.6,34.1-74.8,51.9-1.9,1.9,49.7,12.8,82.6,5.2,71.5-16.4,76.5-89.8-7.8-57.1Z"/>
  </g>
  <path class="st0" d="M466.1,1031.2c-.1.7-.1,1.3-.2,2-81.9-127.3-138.2-148.8-138.2-148.8,76.4,108,130.7,269.3,143.1,306.2l11.4,5.5,46.8-2.8c-4.6-26.8-13.9-101.1-8.3-184.6.7-9.8,1.4-19.8,3.2-29.8,1.6-10.1,3.1-20.3,4.7-30.6,2.3-10.2,4.6-20.6,7-31l1.8-7.9c.7-2.6,1.5-5.1,2.3-7.7,1.5-5.2,3.1-10.4,4.6-15.5l4.7-15.6,5.6-15.3,5.7-15.3,2.9-7.6,3.4-7.4c4.5-9.8,8.9-19.7,13.4-29.4,10.1-18.7,19.8-37.6,31.2-54.4,2.7-4.3,5.4-8.5,8.2-12.8,2.6-4.2,5.8-8,8.6-12,5.8-7.9,11.5-15.6,17.1-23.1,3.4-4,12.6-16.6,21.1-28.1-16.5,12.6-136.9,73.7-199.9,366Z"/>
  <g>
    <path class="st0" d="M803.1,1633.6c-5.4-4.1-10.9-8.3-16.3-12.4,15.8,13.2,32.2,26.1,48.9,37.7-10.9-8.4-21.7-17.1-32.5-25.3Z"/>
    <path class="st0" d="M905.7,1697.4c-23.3-8.5-47-22.3-70.1-38.5,21.3,16.4,43.5,31.7,69.5,40.9,1.7.6,2.2-1.8.6-2.4Z"/>
    <path class="st0" d="M829.6,1371.5c1.3,0,1.2-2,0-2-52.8-2.3-102.3-12.5-149.1-32,13.2-.8,26.8-4.9,39.3-7.4,28.3-5.7,57.4-7,85.9,1.5,1.2.4,1.7-1.5.5-1.9-46.7-15.2-87.8-.1-133.3,4.7-15.9-7.1-31.6-15.2-46.9-24.7-14.5-9-27.4-19.5-39.7-30.5,4.2,1.7,8.7,3.3,13.6,4.5,14.8,3.9,29.2,10.3,44.7,9.7.6,0,.6-1,0-1-13.9,0-26.6-5.5-39.5-9.9-9.8-3.3-18.9-6.1-27.4-11-14.4-13.2-28.3-26.8-43.8-38.9-2.2,0-3.4,0-5.6,0,0,.4,0,.8.3,1.1,68.8,90.8,188.6,134.6,301.1,137.7Z"/>
    <path class="st0" d="M537.2,1275.8c2,2.6,4,5.2,6,7.9,16.6,25.4,36,47,60.9,64.8,4,5.8,8.3,11.4,13.4,16.7,15.2,15.5,33.8,28.6,47.6,45.6.5.6,1.5-.3.9-.9-15.9-15.1-30.7-31.8-45-48.3-1.1-1.2-2.1-2.6-3.1-4,10.5,6.4,21.9,12.3,34.4,17.5,8.5,3.6,17.1,6.8,25.7,9.9,5.4,2.6,11,4.9,16.6,7.1,11.3,4.4,25.3,7.2,37.9,11.8.2.6.6,1.1,1.3,1.3,15.6,3.3,28.7,20.7,41.2,30.6,14.8,11.8,29.4,23.9,47.2,31.2.8.3,1.4-1,.6-1.3-21.7-9.9-41.9-27.4-58.5-44.1-4.8-4.8-10.1-11.5-16.2-15.8,66.6,16,134.5,24.5,203.8,43.1.6.2.9-.8.2-1-69.2-19.9-140-26.5-208.1-44.6-2.2-1.1-4.6-1.8-7-1.9-2.9-.8-5.7-1.7-8.5-2.6-4.6-1.9-9.1-3.8-13.6-5.8-18.9-8.6-38.8-13.5-57.5-22.8-.4-.2-.8,0-1,.3-19.1-9.9-36.3-21.3-52-34.1-2.7-3.5-5.9-6.3-9.4-8-20.1-17.9-37.7-38.4-53.7-62-4.7-7.8-9.7-15.8-12.6-24.4-1.2-3.6-2.4-6.6-4.3-9.3h-13c-.3,1.3-.2,2.8.7,4.2,8,13.4,15.4,26.3,25,38.9Z"/>
    <path class="st0" d="M487.4,1285.1c3-17.4,6.3-34.8,9.2-52.4h-5.5c-16.5,33.6-13.9,84.4-13.3,120.5,0,1.3,1.9,1.3,1.9,0,.6-18.7,2.8-36.9,5.6-55,3.5,29.9,10.8,59.4,11.8,89.8,0,.6.9.6,1,0,.4-18,.3-36-1.7-54-1.9-16.6-6.9-32.4-9-48.9Z"/>
    <path class="st0" d="M724.5,1451.4h.8s-.8,0-.8,0Z"/>
    <path class="st0" d="M1629.6,1290.5c-2,2.8-6,8.2-6,8.2,0,0,3.2-4.6,4.8-6.9.2-.3-.2-.5-.4-.2-4.3,5.9-8.4,12.1-12.4,18.3-30.2,40.6-61.9,72.2-107.8,95-14.3,7.1-28.4,15.5-41.8,25.1,28.3-31.5,55.9-64.3,89-93.9,1.3-1.2-.7-3.3-2.1-2.1-62.9,55.3-107.4,122.8-175.5,172.2-23.5,17.1-49.5,30.9-77,42.6,12.4-11.4,19.5-27.4,28.5-42.2.7-1.1-1.2-2.1-1.8-1-10,16.6-17.7,34.8-33.5,46.1-23.8,9.7-48.9,17.4-74.5,23.7-12.7-3.3-25.3-5.5-37.7-7,63.6-38,112.6-100.6,173.6-139,.7-.4,0-1.6-.7-1.1-64.3,46-121.6,98.7-190.5,138.4-65.8-4.5-129.9,10.6-197.2,22.2-2.7-.1-5.4-.3-8.1-.4-1.9,0-3.9-.3-5.8-.4-49.4-8.8-98.9-23.7-145.5-43.8-40.7-20.4-79.4-44.6-117.3-66.3-.2,0-.3,0-.5,0-2.2-1.6-4.2-3.3-6.3-4.9-6.9-6.8-13.7-13.6-20.6-20.6-1.2-1.2-3.4.3-2.4,1.7.4.6,1,1.2,1.4,1.7-24.4-20.5-46.4-42.9-65.3-67.3,24.3,24.8,52.7,47.8,76.1,66.5,32.3,25.7,74,41.3,115.6,52.9.2.2.3.4.6.5,3.8,1.1,7.6,2,11.3,2.7,11.3,2.9,22.5,5.7,33.4,8.2,93.1,21.7,186.6,27.5,273.3,7.8.6.5,1.4.7,2.1.1.3-.3.7-.6,1-.9,26.2-6.1,51.7-14.5,76.6-25.5,1.2-.5.1-2.9-1.1-2.4-22.5,9.7-46.1,17.5-70.5,23.4,31.5-28,63.3-57.3,82.7-95.7.6-1.1-1.2-2.2-1.8-1.1-20.5,39.8-54.6,69.6-87.5,98.4-89.2,20.5-188.3,15.5-280-11,10.9-.6,21.8-2.3,32.9-4.1,38.9-6.2,78.4-10.4,117.4-14.8.2,0,.2-.5-.1-.5-31.8,1.9-63.7,4.7-95.7,7.8-24.1,2.3-46.9,7.1-70.8,6.6-46.4-14.8-90.6-35.1-130.6-60.7,3.2.6,6.3,1.4,9.6,1.8,11.2,1.4,33.9,2.6,33.9,2.6,0,0-34.2-5.3-50.9-9.4-45.2-30-84.8-66.9-117-110.9-16.2-33.4-31.2-67.1-51.1-98.5h-4.9c2,11.6,5,23.3,8.8,35-1.7,60.3,16.6,121.8,36.1,178.3.4,1.2,2.3.7,1.9-.5-6.4-20.2-11.4-40.1-15.6-59.9,3.8,6.1,8.5,11.8,13.2,16.9.2.2.5,0,.4-.3-6.8-8.9-11.9-18.3-16.1-28.4-5.4-28.1-9.2-56.2-12.4-85.1,13.7,34.2,33.4,68.1,54.5,98.8,6.5,35,18.8,69.3,33.7,102.7-.2.4-.3.8-.1,1.3,9.7,23.6,12.2,50.6,12.4,75.6,0,.3.5.3.5,0,.6-16.3,1.5-35.4-1.7-53,9,18.6,18.5,36.9,27.9,54.8.5.9,1.8.1,1.3-.7-28-55.7-50-110.8-65.9-169.1,7.6,10.7,15.4,20.9,23,30.5,1.9,2.4,3.9,4.7,5.8,7,8.1,17.1,19.2,33.4,31.7,49-.3.3-.6.7-.3,1.2,12.2,19.2,22.8,40.5,31.3,61.7.1.3.6.2.5-.1-6.8-19.5-15.9-38.9-26.7-56.8,17.7,21.2,37.8,41,56.5,59.1,22.4,21.8,48,42,73.7,61.7-1,.6-1.5,1.9-.4,3.4,11.9,14.6,18,32.3,28.5,47.8,11.6,17.1,27.3,32.2,43.7,45.7,1.1.9,2.5-.4,1.4-1.3-17.6-15.2-33.1-31.9-45.4-50.9-8.5-13.2-13.4-27.8-22.4-40.6,2,1.5,4,3.1,6,4.6-2.3-1.9-4.5-3.8-6.8-5.7-.5-.7-.9-1.5-1.5-2.2-.7-.9-1.5-1-2.3-1-23.7-20.3-45.8-40.7-65.4-57.8-34.6-30.1-72.9-67.8-94.9-108.9,53.3,63.1,118.9,115.6,196.8,156.3,28.9,15.1,59.3,27.4,90.3,37.2,32.9,21.3,64.9,43.5,102.6,56.3,54.3,18.3,111.2,9.9,162.7,2.8.3,0,.1-.5-.2-.5-58.8,7.1-115.8,11.5-176.8-11.2-32.7-12.1-30.7-26.8-54.2-37.5-.6-.2-1.2-.5-1.7-.7,85.7,21.6,174.9,23.2,255.2,5.5,40.4,1.8,80.3,7.2,119.2,7.5,44.9.4,88.4-9.3,130.5-12.9.3,0,.3-.5,0-.5-42.5,1.1-85.4,10.7-130.6,11.6-33.9.6-68.4-8-103.5-9.3,1-.3,2-.6,2.9-.8.4.5.9.8,1.5.6,3.2-1.3,6.5-2.4,9.7-3.7,14.9-4.3,29.5-9.2,43.6-14.8.1,0,.1.3.3.3,29.1-2.9,59.4.7,87.4-4,30.5-5.2,57.7-17.6,85.3-29.3.5-.2.2-1.2-.3-1-27.8,11-55.1,22.6-85.7,26.9-26.3,3.7-52.9-.7-79.6,3.9,7.1-3,14.1-6.1,21-9.3,5.9-2.5,11.7-4.9,17.4-7.6,39-18.7,72.4-46.1,109.5-66.5.7-.4,0-1.5-.7-1.1-36,22.1-72.2,44.7-111,62.9-29.3,13.7-60.7,23.1-90.6,36.9-8.8,2.4-17.7,4.6-26.7,6.5h-.3c0,0-.1.1-.2.1-45,9.4-92.2,12.3-140.1,9.1,15.6-4.2,32.7-5.2,46-13.8.3-.2,0-.6-.3-.4-15.9,8.8-38.7,3.9-53.9,13.6-82.7-6.7-166.9-31.3-243.7-72.4-75.6-40.5-137.4-99.4-186.9-162.9-15.8-20.2-28.4-41.6-39.8-63.5,2.2,2.8,4.5,5.7,6.8,8.5,20.7,45.7,59.2,82.2,103.2,112,.8.7,1.6,1.4,2.4,2.2,45.4,51.2,103.6,94,172.8,112.8,33,9,66.6,5.9,99,.8,22.9,2.5,47.1,5.1,70.6,6,42.3,16,128.3,22.9,128.3,22.9,0,0-75-11.1-112.5-22.6,6,0,12.1-.3,17.8-.5,3.2-.1,6.5-.1,9.8-.2,53.6-2.3,106-10.1,155.7-23.5,4.1,1,8.2,2,12.4,3.2.6.2.8-.8.2-1-3.4-1.1-6.7-2-10-2.9,41.2-11.3,80.5-26.4,117.3-45.4,10.5-5.4,20.3-11.4,29.6-17.7,66.4-21.8,127.5-44.7,188.8-76.4.5-.3.3-1.2-.3-1-32.4,15.8-64.4,32.2-98.3,44.8-25.4,9.4-52.4,13.7-77.7,23.7,13.7-10.2,26.4-21.3,38.5-32.9,39.9-32.2,84.8-56.3,124-86.1,2.1-1.5,4.2-3,6.2-4.6,5.1-4,9.6-8.1,14-12.4,23.8-21.3,45-46.3,60.6-79.1.1-.3-.2-.5-.4-.2ZM1157.7,1569.7c-19.4,9.3-39.1,17-62.7,20.9-33.4,5.5-69.5,2.2-104.9-.3,57.3-10.3,111.8-22,167.7-20.6ZM708.9,1497.8c2,1.2,4,2.4,6,3.5,61.4,45.1,139.9,82.5,215.8,92.2-91.2,6-159.5-38.4-221.8-95.7ZM1130.2,1591.5c16.7-5.1,32.3-12.3,47.1-20.7,12.6,1,25.4,2.8,38.2,5.5-27.9,6.7-56.6,11.7-85.3,15.2Z"/>
    <path class="st0" d="M742.2,1452.2c-5.6,0-16.8-.7-16.8-.7,0,0,11.2,1,16.7,2,1,.2,1.1-1.2.1-1.2Z"/>
    <path class="st0" d="M1154.1,1625.2l18.4-.6-18.4.6Z"/>
  </g>
  <path class="st0" d="M1554.7,820.8h43.7c-91.2-201.3-298.8-335.9-539.8-335.9s-33.8,3.6-51.6,5.2c17.8-1.8,32-1.9,50.3-1.9,219.7,0,410.2,140.5,497.5,332.6Z"/>
  <g>
    <polygon class="st0" points="698.4 978.1 634.9 978.1 634.9 856 602.7 856 602.7 1006.3 698.4 1006.3 698.4 978.1"/>
    <path class="st0" d="M864.4,1006.3h36.3l-57.9-150.3h-40.1l-57.9,150.3h36.3l9.5-25.5h64.5l9.5,25.5ZM799.3,952.7l23.4-64.7,23.4,64.7h-46.9Z"/>
    <polygon class="st0" points="1089.8 1006.3 1089.8 856 1057.7 856 1057.7 950.4 988.1 856 955.2 856 955.2 1006.3 987.2 1006.3 987.2 908.3 1058.9 1006.3 1089.8 1006.3"/>
    <path class="st0" d="M1299,931c0-45.1-32.7-75-79.7-75h-59.3v150.3h59.5c46.9,0,79.5-29.7,79.5-75.2ZM1192,978.1v-93.9h27.5c30.6,0,46.9,20.5,46.9,46.9s-17.4,47.1-47.1,47.1h-27.3Z"/>
    <polygon class="st0" points="1396.8 876.7 1430 876.7 1430 969.2 1454.4 969.2 1454.4 876.7 1487.5 876.7 1487.5 855.4 1396.8 855.4 1396.8 876.7"/>
    <path class="st0" d="M1583.8,971.3c34.3,0,59.4-24.6,59.4-58.9s-25.1-58.9-59.4-58.9-59.6,24.6-59.6,58.9,25.1,58.9,59.6,58.9ZM1583.8,875c21,0,34.5,16.1,34.5,37.4s-13.5,37.3-34.5,37.3-34.7-16.2-34.7-37.3,13.5-37.4,34.7-37.4Z"/>
    <polygon class="st0" points="685.3 1135.1 648.9 1041.2 604 1041.2 604 1191.5 636 1191.5 636 1083.1 678.4 1191.5 692.3 1191.5 734.7 1083.1 734.7 1191.5 766.9 1191.5 766.9 1041.2 721.8 1041.2 685.3 1135.1"/>
    <path class="st0" d="M870.1,1041.2l-57.9,150.3h36.3l9.4-25.5h64.5l9.4,25.5h36.3l-57.9-150.3h-40.1ZM866.7,1137.9l23.4-64.7,23.4,64.7h-46.9Z"/>
    <path class="st0" d="M1134.3,1089.7c0-27.9-19.4-48.5-50.7-48.5h-70.3v150.3h32v-53.4h23.5l29.5,53.4h36.9l-34-57.2c16.2-3.8,33.1-18.2,33.1-44.6ZM1079.1,1109.9h-33.8v-40.6h33.8c12.6,0,22.3,7.7,22.3,20.1s-9.7,20.5-22.3,20.5Z"/>
    <polygon class="st0" points="1314.1 1041.2 1274.7 1041.2 1221.5 1108.1 1221.5 1041.2 1189.5 1041.2 1189.5 1191.5 1221.5 1191.5 1221.5 1145.3 1233.2 1131.1 1278.8 1191.5 1318.2 1191.5 1254.4 1111.7 1314.1 1041.2"/>
    <polygon class="st0" points="1364.1 1191.5 1470.5 1191.5 1470.5 1163.3 1396.1 1163.3 1396.1 1129.1 1468.9 1129.1 1468.9 1100.9 1396.1 1100.9 1396.1 1069.4 1470.5 1069.4 1470.5 1041.2 1364.1 1041.2 1364.1 1191.5"/>
    <polygon class="st0" points="1517.5 1069.4 1561.5 1069.4 1561.5 1191.5 1593.7 1191.5 1593.7 1069.4 1637.4 1069.4 1637.4 1041.2 1517.5 1041.2 1517.5 1069.4"/>
  </g>
  <g>
    <path class="st0" d="M800.4,762.3l-31.4-81.5h19.7l22.6,62.6,22.6-62.6h19.7l-31.4,81.5h-21.8Z"/>
    <path class="st0" d="M870.9,762.3v-81.5h57.7v15.3h-40.3v17.1h39.5v15.3h-39.5v18.6h40.3v15.3h-57.7Z"/>
    <path class="st0" d="M998,762.3l-16-29h-12.7v29h-17.4v-81.5h38.2c17,0,27.5,11.1,27.5,26.3s-9.2,22.1-18,24.2l18.4,31h-20ZM999.7,706.9c0-6.7-5.3-10.9-12.1-10.9h-18.3v22h18.3c6.8,0,12.1-4.1,12.1-11.1Z"/>
    <path class="st0" d="M1040.3,762.3v-81.5h17.3v81.5h-17.3Z"/>
    <path class="st0" d="M1083.5,762.3v-81.5h57.7v15.3h-40.3v17.1h39.5v15.3h-39.5v33.8h-17.4Z"/>
    <path class="st0" d="M1163.1,762.3v-81.5h17.3v81.5h-17.3Z"/>
    <path class="st0" d="M1206.3,762.3v-81.5h57.7v15.3h-40.3v17.1h39.5v15.3h-39.5v18.6h40.3v15.3h-57.7Z"/>
    <path class="st0" d="M1287.3,762.3v-81.5h32.1c25.6,0,43.3,16.3,43.3,40.7s-17.7,40.8-43.1,40.8h-32.3ZM1345,721.5c0-14.3-8.8-25.4-25.4-25.4h-14.9v51h14.8c16.2,0,25.6-11.6,25.6-25.5Z"/>
  </g>
</svg>