<?xml version="1.0" encoding="UTF-8"?>
<svg id="Layer_1" xmlns="http://www.w3.org/2000/svg" version="1.1" viewBox="0 0 360 360">
  <!-- Generator: Adobe Illustrator 30.3.0, SVG Export Plug-In . SVG Version: 2.1.3 Build 182)  -->
  <defs>
    <style>
      .st0 {
        fill: #fff;
      }
    </style>
  </defs>
  <g>
    <path class="st0" d="M84.5,145c-3.2,6.8-3.3,18.5-2.8,18.2,4.7-3.1,11.7-9,14.9-13.8,11.1-16.8-5.1-19.2-12-4.4ZM93.4,140.6l1.6-2.7s-.6,1-1.6,2.7Z"/>
    <path class="st0" d="M100.5,113.8c-1.7,7.3.6,18.8,1,18.4,4-4,9.6-11.2,11.7-16.5,7.5-18.7-8.9-17.8-12.7-1.9Z"/>
    <path class="st0" d="M127,98.9c-4.3,6.1-6.4,17.7-5.9,17.5,5.2-2.2,13.1-6.9,17-11,13.8-14.6-1.7-19.8-11.1-6.4Z"/>
    <path class="st0" d="M162.5,87.8c-6.4,4-12.7,13.8-12.2,13.8,5.7,0,14.7-1.3,19.9-3.6,18.4-8.1,6.1-18.9-7.8-10.2Z"/>
    <path class="st0" d="M121.2,124.3c-4.9,2.9-11.1,9.6-14.4,14.2-.4.5,11.4.9,18.3-2,15.1-6.3,13.4-22.6-3.9-12.2Z"/>
    <path class="st0" d="M155,107c-5.3,2-12.6,7.6-16.7,11.6-.4.4,11.1,2.8,18.4,1.2,15.9-3.7,17-20-1.7-12.7Z"/>
  </g>
  <path class="st0" d="M57.4,238.7c0,.2,0,.3,0,.4-18.2-28.3-30.8-33.1-30.8-33.1,17,24,29.1,60,31.9,68.2l2.5,1.2,10.4-.6c-1-6-3.1-22.5-1.8-41.1.2-2.2.3-4.4.7-6.6.4-2.2.7-4.5,1-6.8.5-2.3,1-4.6,1.6-6.9l.4-1.8c.2-.6.3-1.1.5-1.7.3-1.2.7-2.3,1-3.5l1-3.5,1.2-3.4,1.3-3.4.6-1.7.8-1.6c1-2.2,2-4.4,3-6.5,2.2-4.2,4.4-8.4,6.9-12.1.6-1,1.2-1.9,1.8-2.8.6-.9,1.3-1.8,1.9-2.7,1.3-1.8,2.6-3.5,3.8-5.1.8-.9,2.8-3.7,4.7-6.3-3.7,2.8-30.5,16.4-44.5,81.5Z"/>
  <polygon class="st0" points="109.1 226.9 94.9 226.9 94.9 199.7 87.7 199.7 87.7 233.1 109.1 233.1 109.1 226.9"/>
  <path class="st0" d="M146,233.1h8.1l-12.9-33.5h-8.9l-12.9,33.5h8.1l2.1-5.7h14.4l2.1,5.7ZM131.5,221.2l5.2-14.4,5.2,14.4h-10.4Z"/>
  <polygon class="st0" points="196.2 233.1 196.2 199.7 189.1 199.7 189.1 220.7 173.6 199.7 166.2 199.7 166.2 233.1 173.4 233.1 173.4 211.3 189.3 233.1 196.2 233.1"/>
  <path class="st0" d="M242.8,216.4c0-10-7.3-16.7-17.7-16.7h-13.2v33.5h13.2c10.4,0,17.7-6.6,17.7-16.8ZM219,226.9v-20.9h6.1c6.8,0,10.4,4.6,10.4,10.4s-3.9,10.5-10.5,10.5h-6.1Z"/>
  <polygon class="st0" points="264.5 203.2 271.9 203.2 271.9 223.8 277.4 223.8 277.4 203.2 284.7 203.2 284.7 198.4 264.5 198.4 264.5 203.2"/>
  <path class="st0" d="M306.2,224.2c7.6,0,13.2-5.5,13.2-13.1s-5.6-13.1-13.2-13.1-13.3,5.5-13.3,13.1c0,7.6,5.6,13.1,13.3,13.1ZM306.2,202.8c4.7,0,7.7,3.6,7.7,8.3s-3,8.3-7.7,8.3-7.7-3.6-7.7-8.3c0-4.8,3-8.3,7.7-8.3Z"/>
  <polygon class="st0" points="106.2 261.8 98 240.9 88.1 240.9 88.1 274.4 95.2 274.4 95.2 250.2 104.6 274.4 107.7 274.4 117.1 250.2 117.1 274.4 124.3 274.4 124.3 240.9 114.3 240.9 106.2 261.8"/>
  <path class="st0" d="M147.3,240.9l-12.9,33.5h8.1l2.1-5.7h14.4l2.1,5.7h8.1l-12.9-33.5h-8.9ZM146.5,262.4l5.2-14.4,5.2,14.4h-10.4Z"/>
  <path class="st0" d="M206.1,251.7c0-6.2-4.3-10.8-11.3-10.8h-15.7v33.5h7.1v-11.9h5.2l6.6,11.9h8.2l-7.6-12.7c3.6-.8,7.4-4.1,7.4-9.9ZM193.8,256.2h-7.5v-9h7.5c2.8,0,5,1.7,5,4.5s-2.2,4.6-5,4.6Z"/>
  <polygon class="st0" points="246.1 240.9 237.3 240.9 225.5 255.8 225.5 240.9 218.4 240.9 218.4 274.4 225.5 274.4 225.5 264.1 228.1 260.9 238.3 274.4 247 274.4 232.9 256.6 246.1 240.9"/>
  <polygon class="st0" points="257.3 274.4 280.9 274.4 280.9 268.1 264.4 268.1 264.4 260.5 280.6 260.5 280.6 254.2 264.4 254.2 264.4 247.2 280.9 247.2 280.9 240.9 257.3 240.9 257.3 274.4"/>
  <polygon class="st0" points="291.4 247.2 301.2 247.2 301.2 274.4 308.4 274.4 308.4 247.2 318.1 247.2 318.1 240.9 291.4 240.9 291.4 247.2"/>
  <path class="st0" d="M323.7,237h-1.7v-.9h4.3v.9h-1.6v4.9h-1v-4.9ZM327.6,236.1h1.6l1.4,4,1.4-4h1.5v5.8h-1v-4.7l-1.6,4.4h-.6l-1.7-4.4v4.8h-1v-5.8h0Z"/>
</svg>